# xmcd
#
# Track frame offsets:
# 150
# 11983
# 30641
# 53214
# 77847
# 95036
# 116143
# 138156
# 160514
# 178041
#
# Disc length: 2630 seconds
#
#
# Revision: 0
# Processed by: cddbd v1.5.1PL2 Copyright (c) Steve Scherf et al.
# Submitted via: FreeRIP 2.944 
#
DISCID=7f0a440a
DTITLE=Steve Brock - Season Of Miracles
DYEAR=2003
DGENRE=Gospel
TTITLE0=O Come All Ye Faithful
TTITLE1=O Holy Night
TTITLE2=Gloria
TTITLE3=Christmas Is All in the Heart
TTITLE4=The Miracle Season of Christmas
TTITLE5=Ave Maria
TTITLE6=Three Carol Suite
TTITLE7=Bethlehem Morning
TTITLE8=Mary Did You Know?/What Child is This?
TTITLE9=Have Yourself a Merry Little Christmas
EXTD=ISBN: 1-59024-163-0\nExecutive Producer-Pastor Benny Hinn\nProduced and arranged by Dick Tunney and Stan Moser
EXTT0=
EXTT1=
EXTT2=
EXTT3=
EXTT4=
EXTT5=
EXTT6=
EXTT7=
EXTT8=
EXTT9=
PLAYORDER=
